inDegrees=yes
name=ik_lifting_orientations
DataType=double
version=3
OpenSimVersion=4.5-2024-01-10-34fd6af
endheader
time	pelvis_tilt	pelvis_list	pelvis_rotation	pelvis_tx	pelvis_ty	pelvis_tz	hip_flexion_r	hip_adduction_r	hip_rotation_r	knee_angle_r	knee_angle_r_beta	ankle_angle_r	subtalar_angle_r	mtp_angle_r	hip_flexion_l	hip_adduction_l	hip_rotation_l	knee_angle_l	knee_angle_l_beta	ankle_angle_l	subtalar_angle_l	mtp_angle_l	lumbar_extension	lumbar_bending	lumbar_rotation	arm_flex_r	arm_add_r	arm_rot_r	elbow_flex_r	pro_sup_r	wrist_flex_r	wrist_dev_r	arm_flex_l	arm_add_l	arm_rot_l	elbow_flex_l	pro_sup_l	wrist_flex_l	wrist_dev_l
1.12	5.00131432598889	6.523034289183787	-89.43317121087212	0	0.9399999998679526	0	46.07644030898214	-10.7960991099107	0	60.37167033662016	1.053684422302615	-5.295437535699113	0	0	46.07644030898214	-10.7960991099107	0	60.37167033662016	1.053684422302615	-5.295437535699113	0	0	-4.873847588300239	-8.959240299452249	55.27663087279311	45.61840366141869	-48.34113002991519	-29.1252220312646	36.37205660444837	1.704484358928084	0	0	0	-11.13254051166019	0	88.41140145401286	1.704484358928084	0	0
1.13	5.029914132322576	6.435053373871746	-90.29187191254996	0	0.9399999998679526	0	46.07537356698704	-10.79333557849272	0	60.37138220824035	1.053679393513719	-5.294099959438483	0	0	46.07537356698704	-10.79333557849272	0	60.37138220824035	1.053679393513719	-5.294099959438483	0	0	-4.902106139618542	-8.936052883153138	55.53672558341781	47.79709490218357	-47.91343516582596	-26.03250051965589	36.78076735458934	1.703310101670829	0	0	0	-11.13450116546567	0	88.4124957084959	1.703310101670829	0	0
1.14	5.071661082308215	6.342133666421061	-91.13907504137838	0	0.9399999998679526	0	46.07438282159683	-10.79077083476755	0	60.37111488637225	1.053674727866958	-5.292859439046751	0	0	46.07438282159683	-10.79077083476755	0	60.37111488637225	1.053674727866958	-5.292859439046751	0	0	-4.736563664951628	-9.433863514228529	58.35286427828974	47.8523505164903	-49.03198018907875	-26.17035817505072	36.94471926668611	1.702219718108233	0	0	0	-11.1363213426892	0	88.41351180361194	1.702219718108233	0	0
1.15	5.106110508200159	6.236313691614138	-92.14066721937614	0	0.9399999998679526	0	46.07636488274964	-10.7934840344534	0	60.37184513468053	1.053687473104295	-5.293949403859008	0	0	46.07636488274964	-10.7934840344534	0	60.37184513468053	1.053687473104295	-5.293949403859008	0	0	-4.551932218803885	-9.944673757048848	61.31721911920069	48.21796956904465	-49.95529296758654	-25.85751183996687	36.95991564386259	1.704721827238964	0	0	0	-11.13168950804754	0	88.41118009028375	1.704721827238964	0	0
1.16	5.269198753477391	6.214619360397263	-93.64002283325544	0	0.9399999998679526	0	46.07520396632585	-10.79049452189219	0	60.37153068299766	1.05368198488709	-5.292505745461503	0	0	46.07520396632585	-10.79049452189219	0	60.37153068299766	1.05368198488709	-5.292505745461503	0	0	-4.420080308790911	-9.998338216370254	61.68630174310105	50.77418759561979	-49.01291684753489	-22.10316716895804	36.85187466843064	1.703442507979186	0	0	0	-11.13382737004456	0	88.41237224913822	1.703442507979186	0	0
1.17	5.432576158998883	6.186015784538824	-95.14260220345403	0	0.9399999998679526	0	46.07409453666789	-10.78763625703989	0	60.37123090613967	1.053676752793897	-5.291126252790085	0	0	46.07409453666789	-10.78763625703989	0	60.37123090613967	1.053676752793897	-5.291126252790085	0	0	-4.239933956977167	-10.27358091371097	63.21055795356234	53.20501335224452	-48.79164138865079	-19.12758765885606	36.74546819688282	1.702220775089913	0	0	0	-11.13586760984576	0	88.41351074482129	1.702220775089913	0	0
1.18	5.544870456998793	6.235084906214203	-95.66296179467669	0	0.9399999998679526	0	46.07363322127456	-10.78644947427032	0	60.37110627012749	1.053674577485118	-5.290553870203454	0	0	46.07363322127456	-10.78644947427032	0	60.37110627012749	1.053674577485118	-5.290553870203454	0	0	-3.988146306681082	-10.69477056828389	65.26925718709151	54.04911881128047	-49.61964949927203	-18.26375588510601	36.9542749781256	1.701712707732574	0	0	0	-11.13671608994775	0	88.41398419734173	1.701712707732574	0	0
1.19	5.541361215905653	6.212488902539265	-95.8223795926488	0	0.9399999998679526	0	46.0727589300425	-10.78420538195234	0	60.370869886302	1.053670451809065	-5.289472413186185	0	0	46.0727589300425	-10.78420538195234	0	60.370869886302	1.053670451809065	-5.289472413186185	0	0	-3.957785622159942	-10.71746647413645	65.42332395764342	56.5714772588799	-49.28078715603441	-15.53587164864425	35.77170227687316	1.70074940931138	0	0	0	-11.13832530986867	0	88.414881865952	1.70074940931138	0	0
1.2	5.506107272781508	6.17610490224036	-95.77495953067358	0	0.9399999998679526	0	46.07194148865823	-10.78211394559157	0	60.3706486189893	1.053666589965931	-5.288465614613447	0	0	46.07194148865823	-10.78211394559157	0	60.3706486189893	1.053666589965931	-5.288465614613447	0	0	-4.057431599829513	-10.5303725395199	64.55941078326045	59.40735464025538	-48.21099785541564	-11.97375301169788	35.20801578450065	1.69984819354899	0	0	0	-11.1398315116312	0	88.41572168175394	1.69984819354899	0	0
1.21	5.482248273365015	6.205851619382589	-95.41751209322072	0	0.9399999998679526	0	46.07105305421431	-10.77984115173071	0	60.37040842025643	1.053662397707183	-5.28737200112059	0	0	46.07105305421431	-10.77984115173071	0	60.37040842025643	1.053662397707183	-5.28737200112059	0	0	-4.070830183722071	-10.56040442792997	64.63102324582445	61.33824112471899	-47.9725151222801	-9.725888320545687	34.61488385121731	1.698868990555087	0	0	0	-11.1414675757197	0	88.41663417145764	1.698868990555087	0	0
1.22	5.473549457321261	6.198390343920592	-95.40674120582925	0	0.9399999998679526	0	46.07013532198616	-10.7774982443121	0	60.37016028455157	1.053658066922142	-5.286245680823178	0	0	46.07013532198616	-10.7774982443121	0	60.37016028455157	1.053658066922142	-5.286245680823178	0	0	-4.007262082839989	-10.65112583266077	65.11896122652443	63.29187168778345	-47.83541077441929	-7.885931407668697	33.60181036226987	1.697857275077729	0	0	0	-11.14315816120049	0	88.4175769586296	1.697857275077729	0	0
1.23	5.481126072805032	6.211204519676368	-95.41067024812776	0	0.9399999998679526	0	46.06918526553821	-10.77508119290589	0	60.36990309412299	1.053653578102358	-5.285085077297956	0	0	46.06918526553821	-10.77508119290589	0	60.36990309412299	1.053653578102358	-5.285085077297956	0	0	-3.940144133155405	-10.60268996022236	64.80821343717622	65.74183571844127	-47.05354575278648	-5.599477589865467	32.27007544774209	1.696809231857559	0	0	0	-11.14491031790162	0	88.41855359870625	1.696809231857559	0	0
